<svg xmlns="http://www.w3.org/2000/svg" xmlns:xlink="http://www.w3.org/1999/xlink" viewBox="0 0 48 48" width="48px" height="48px"><path fill="#513620" d="M4.511,30.782c-0.964,1.372-1.349,3.215-0.722,4.77c0.627,1.555,2.385,2.658,4.018,2.28 c1.606-0.372,2.647-1.939,3.208-3.49c0.463-1.278,0.715-2.687,0.356-3.998c-0.318-1.161-1.585-2.898-2.959-2.491 C6.939,28.29,5.381,29.544,4.511,30.782z"/><path fill="#010101" d="M7.141,38.407c-1.588,0-3.168-1.062-3.815-2.668c-0.654-1.622-0.357-3.631,0.776-5.245l0,0 c1.003-1.425,2.678-2.679,4.168-3.121c0.535-0.157,1.099-0.083,1.635,0.216c0.998,0.556,1.71,1.749,1.949,2.623 c0.34,1.24,0.216,2.688-0.368,4.3c-0.44,1.215-1.49,3.326-3.566,3.806C7.662,38.379,7.401,38.407,7.141,38.407z M4.92,31.07 c-0.94,1.338-1.196,2.984-0.667,4.295c0.565,1.4,2.109,2.29,3.44,1.979c1.616-0.374,2.48-2.148,2.853-3.172 c0.512-1.415,0.627-2.658,0.343-3.695c-0.187-0.683-0.766-1.621-1.471-2.013c-0.306-0.17-0.587-0.211-0.864-0.131 C7.283,28.709,5.789,29.835,4.92,31.07L4.92,31.07z"/><path fill="#513620" d="M41.278,37.769c1.887-0.381,3.377-2.266,3.22-4.185c-0.128-1.557-1.18-2.867-2.235-4.018 c-0.457-0.499-0.932-0.996-1.516-1.337c-0.584-0.341-1.299-0.513-1.947-0.316c-0.675,0.205-1.177,0.771-1.553,1.368 c-1.05,1.666-1.555,4.218-0.726,6.086C37.286,37.09,39.462,38.136,41.278,37.769z"/><path fill="#010101" d="M40.524,38.343c-1.845,0-3.729-1.125-4.46-2.773c-0.958-2.158-0.277-4.911,0.76-6.556 c0.536-0.852,1.135-1.368,1.83-1.58c0.721-0.22,1.573-0.087,2.345,0.363c0.638,0.373,1.136,0.889,1.632,1.431 c1.147,1.251,2.228,2.641,2.365,4.315c0.178,2.162-1.446,4.277-3.619,4.716l0,0C41.097,38.316,40.812,38.343,40.524,38.343z M41.278,37.769h0.01H41.278z M39.376,28.33c-0.151,0-0.296,0.021-0.431,0.062c-0.455,0.138-0.872,0.516-1.275,1.156 c-0.929,1.473-1.465,3.875-0.691,5.617c0.653,1.474,2.579,2.447,4.201,2.115l0,0c1.663-0.336,2.955-2.009,2.82-3.654 c-0.119-1.443-1.149-2.678-2.105-3.722c-0.443-0.483-0.883-0.941-1.399-1.243C40.122,28.443,39.732,28.33,39.376,28.33z"/><path fill="#c56528" d="M7.742,19.445c1.956-5.481,6.939-9.84,12.683-10.78c4.011-0.657,8.14,0.283,11.896,1.837 c2.122,0.878,4.209,1.988,5.747,3.693c2.768,3.069,3.316,7.542,3.101,11.67c-0.124,2.384-0.47,4.797-1.472,6.964 c-1.002,2.167-2.731,4.078-4.978,4.887c-1.424,0.513-2.967,0.563-4.48,0.608c-5.226,0.155-10.54,0.303-15.675-0.848 c-1.283-0.288-2.571-0.643-3.794-1.131c-0.971-0.387-1.411-1.471-1.875-2.364c-1.079-2.075-1.768-4.352-2.026-6.676 C6.577,24.664,6.847,21.953,7.742,19.445z"/><path fill="#010101" d="M24.856,38.931c-3.467,0-6.964-0.196-10.402-0.966c-1.497-0.335-2.763-0.713-3.87-1.154 c-1.03-0.411-1.529-1.402-1.97-2.276l-0.163-0.322c-1.113-2.14-1.813-4.445-2.079-6.852c-0.307-2.778,0.004-5.573,0.899-8.083l0,0 c2.063-5.784,7.195-10.144,13.072-11.106c3.642-0.594,7.733,0.034,12.168,1.869c2.737,1.133,4.565,2.311,5.927,3.82 c2.419,2.682,3.506,6.729,3.229,12.03c-0.098,1.872-0.362,4.648-1.518,7.148c-1.146,2.479-3.064,4.356-5.262,5.148 c-1.513,0.545-3.101,0.592-4.636,0.638C28.472,38.877,26.668,38.931,24.856,38.931z M8.213,19.613 c-0.845,2.368-1.138,5.009-0.847,7.638c0.249,2.251,0.931,4.499,1.972,6.5l0.17,0.333c0.378,0.75,0.769,1.526,1.447,1.797 c1.057,0.421,2.272,0.783,3.718,1.107c5.113,1.146,10.42,0.988,15.551,0.836c1.457-0.043,2.963-0.088,4.326-0.578 c1.947-0.702,3.657-2.389,4.692-4.627c1.084-2.343,1.334-4.992,1.428-6.781c0.262-5.026-0.739-8.831-2.974-11.308 c-1.257-1.394-2.974-2.493-5.567-3.566c-4.261-1.763-8.172-2.373-11.623-1.805C15.066,10.049,10.127,14.25,8.213,19.613 L8.213,19.613z"/><path fill="#373837" d="M20.557,23.042c0.351-0.772,0.155-1.759-0.464-2.338c-0.619-0.58-1.616-0.71-2.364-0.309 c-0.747,0.401-1.19,1.304-1.049,2.141C17.008,24.476,19.741,24.837,20.557,23.042z"/><path fill="#010101" d="M18.731,24.709c-0.117,0-0.237-0.008-0.358-0.023c-1.141-0.149-1.998-0.96-2.186-2.067 c-0.175-1.044,0.374-2.165,1.306-2.665c0.935-0.5,2.17-0.338,2.942,0.384c0.771,0.723,1.015,1.947,0.577,2.91v0 C20.598,24.162,19.726,24.709,18.731,24.709z M18.678,20.664c-0.249,0-0.496,0.056-0.712,0.171 c-0.557,0.299-0.896,0.995-0.792,1.618c0.136,0.806,0.775,1.169,1.328,1.242c0.555,0.071,1.262-0.116,1.601-0.86 c0.261-0.575,0.11-1.334-0.351-1.767C19.47,20.804,19.071,20.664,18.678,20.664z M20.558,23.042h0.01H20.558z"/><path fill="#373837" d="M27.326,22.179c0.256-1.053,1.358-1.827,2.435-1.71s1.988,1.11,2.011,2.193 C31.844,25.93,26.546,25.39,27.326,22.179z"/><path fill="#010101" d="M29.568,25.367c-0.688,0-1.377-0.221-1.905-0.645c-0.782-0.626-1.082-1.596-0.823-2.662 c0,0,0,0,0.001,0c0.314-1.295,1.657-2.229,2.975-2.088c1.326,0.144,2.428,1.346,2.457,2.679c0.023,1.09-0.48,1.971-1.383,2.417 C30.482,25.269,30.025,25.367,29.568,25.367z M27.812,22.297c-0.213,0.875,0.141,1.377,0.476,1.646 c0.569,0.456,1.497,0.556,2.158,0.229c0.388-0.191,0.846-0.606,0.826-1.499c-0.018-0.835-0.734-1.617-1.564-1.707 C28.878,20.878,28.009,21.486,27.812,22.297L27.812,22.297z"/><path fill="#010101" d="M27.771,19.245c-0.214,0-0.412-0.138-0.478-0.353c-0.081-0.264,0.066-0.544,0.331-0.625	c1.188-0.364,2.473-0.485,3.703-0.352c0.275,0.03,0.474,0.277,0.443,0.551s-0.295,0.472-0.551,0.443	c-1.104-0.121-2.243-0.013-3.303,0.313C27.868,19.238,27.819,19.245,27.771,19.245z"/><path fill="#373837" d="M17.816,16.263c-0.285-0.283-0.575-0.573-0.745-0.936s-0.2-0.819,0.03-1.148 c0.232-0.331,0.68-0.46,1.08-0.399c0.4,0.061,0.757,0.281,1.075,0.531c0.942,0.74,1.62,1.756,2.282,2.755 c0.233,0.352,0.471,0.715,0.557,1.129c0.086,0.413-0.015,0.895-0.355,1.145c-0.67,0.493-1.279-0.448-1.683-0.849 C19.31,17.747,18.563,17.005,17.816,16.263z"/><path fill="#010101" d="M21.356,19.984c-0.631,0-1.158-0.592-1.449-0.92c-0.073-0.082-0.14-0.158-0.202-0.22l-2.242-2.227 l0,0c-0.298-0.296-0.635-0.631-0.845-1.078c-0.267-0.57-0.239-1.201,0.072-1.647c0.326-0.465,0.943-0.705,1.565-0.607 c0.562,0.086,1.017,0.402,1.309,0.632c1.013,0.795,1.713,1.851,2.391,2.872c0.245,0.371,0.523,0.79,0.63,1.304 c0.137,0.656-0.079,1.303-0.548,1.649C21.802,19.915,21.572,19.984,21.356,19.984z M18.168,15.908l2.242,2.227 c0.075,0.075,0.157,0.166,0.244,0.264c0.454,0.511,0.647,0.643,0.789,0.537c0.148-0.109,0.217-0.379,0.163-0.641 c-0.067-0.325-0.28-0.645-0.485-0.954c-0.633-0.955-1.288-1.942-2.174-2.638c-0.324-0.255-0.592-0.391-0.842-0.43 c-0.247-0.038-0.49,0.042-0.596,0.192c-0.104,0.148-0.099,0.41,0.014,0.649C17.658,15.401,17.917,15.659,18.168,15.908 L18.168,15.908z"/><g><path fill="#513620" d="M33.48,27.961c-0.198,1.212-1.014,2.26-2.039,2.932c-1.025,0.672-2.238,1.003-3.45,1.168 c-2.304,0.331-4.641,0.121-6.955-0.143c-1.565-0.176-3.186-0.386-4.53-1.224c-1.058-0.65-2.006-1.874-2.006-3.164 c-0.011-1.576,1.874-1.058,2.943-1.014c1.279,0.055,2.546,0.121,3.814,0.198c1.962,0.132,3.924,0.287,5.875,0.485 c0.176,0.022,0.353,0.033,0.529,0.055C29.611,27.465,31.551,27.696,33.48,27.961z"/><path fill="#010101" d="M25.444,32.731c-1.518,0-3.021-0.151-4.466-0.316c-1.774-0.2-3.356-0.435-4.738-1.296 c-1.032-0.634-2.241-1.956-2.241-3.588c-0.004-0.509,0.152-0.913,0.465-1.196c0.609-0.553,1.618-0.45,2.425-0.366 c0.205,0.021,0.4,0.042,0.573,0.049c1.283,0.055,2.554,0.122,3.824,0.199c2.2,0.148,4.128,0.307,5.896,0.486l0.54,0.057 c2.09,0.224,3.999,0.456,5.827,0.706c0.133,0.019,0.254,0.09,0.334,0.199s0.113,0.245,0.091,0.378 c-0.209,1.273-1.032,2.464-2.259,3.269c-0.967,0.635-2.163,1.042-3.657,1.246C27.188,32.682,26.314,32.731,25.444,32.731z M15.894,26.901c-0.324,0-0.611,0.041-0.757,0.173c-0.035,0.032-0.14,0.127-0.138,0.453c0,1.145,0.888,2.201,1.768,2.742 c1.206,0.751,2.672,0.966,4.324,1.152c2.209,0.252,4.556,0.471,6.828,0.145c1.347-0.183,2.407-0.54,3.247-1.091 c0.825-0.541,1.423-1.285,1.695-2.093c-1.651-0.221-3.376-0.428-5.255-0.629l-0.537-0.056c-1.745-0.177-3.661-0.335-5.847-0.482 c-1.262-0.077-2.526-0.143-3.803-0.198c-0.19-0.008-0.406-0.03-0.634-0.053C16.511,26.935,16.188,26.901,15.894,26.901z"/></g><g><path fill="#d6e5e5" d="M27.131,27.2c-0.011,0.43-0.022,0.86-0.044,1.29c-0.011,0.265-0.033,0.562-0.22,0.739 c-0.165,0.165-0.419,0.187-0.639,0.209c-0.871,0.066-1.731,0.121-2.601,0.154c-0.507,0.022-1.036,0.033-1.488-0.209 c-0.628-0.331-0.937-1.069-0.948-1.775c0-0.232,0.011-0.562,0.066-0.893C23.218,26.847,25.18,27.002,27.131,27.2z"/><path fill="#010101" d="M23.225,30.104c-0.412,0-0.887-0.046-1.323-0.28c-0.731-0.385-1.197-1.232-1.212-2.208 c0-0.366,0.024-0.694,0.073-0.983c0.043-0.252,0.281-0.43,0.526-0.416c2.197,0.148,4.125,0.307,5.893,0.486 c0.26,0.026,0.456,0.249,0.449,0.51c-0.011,0.434-0.022,0.868-0.045,1.302c-0.011,0.278-0.03,0.751-0.377,1.078 c-0.276,0.277-0.661,0.316-0.916,0.341c-0.905,0.069-1.771,0.125-2.647,0.158C23.517,30.098,23.375,30.104,23.225,30.104z M21.7,27.247c-0.007,0.115-0.011,0.235-0.011,0.361c0.007,0.449,0.189,1.074,0.681,1.333c0.33,0.176,0.754,0.173,1.234,0.152 c0.866-0.033,1.721-0.088,2.584-0.153c0.096-0.01,0.287-0.029,0.324-0.064c0.033-0.034,0.063-0.122,0.074-0.406 c0.014-0.274,0.023-0.546,0.031-0.818C25.12,27.505,23.502,27.372,21.7,27.247z"/></g><g><defs><rect id="JzX7qKPJjq53cNlt1f6nva" width="221.5" height="76.75" x="-104.722" y="79.929"/></defs><clipPath id="JzX7qKPJjq53cNlt1f6nvb"><use overflow="visible" xlink:href="#JzX7qKPJjq53cNlt1f6nva"/></clipPath></g><g><path fill="#513620" d="M8.604,34.3c0.085-1.336,0.896-2.678,2.164-3.104c1.075-0.361,2.278-0.025,3.244,0.57 c1.398,0.862,2.448,2.272,2.874,3.858c0.155,0.578,0.221,1.227-0.072,1.749c-0.414,0.737-1.368,0.946-2.211,1.011 c-1.322,0.101-3.359,0.244-4.597-0.338C8.9,37.524,8.535,35.382,8.604,34.3z"/><path fill="#010101" d="M12.67,38.977c-1.008,0-2.075-0.103-2.876-0.479c-1.436-0.674-1.758-3.14-1.689-4.229l0,0 c0.105-1.653,1.111-3.079,2.504-3.547c1.096-0.368,2.432-0.143,3.666,0.618c1.507,0.929,2.635,2.443,3.094,4.155 c0.234,0.871,0.195,1.565-0.119,2.124c-0.421,0.748-1.273,1.162-2.607,1.264C14.098,38.923,13.399,38.977,12.67,38.977z M9.103,34.332c-0.068,1.083,0.333,2.892,1.117,3.261c1.14,0.538,3.227,0.379,4.346,0.292c0.975-0.075,1.567-0.322,1.812-0.757 c0.177-0.314,0.186-0.776,0.025-1.374c-0.395-1.468-1.361-2.766-2.654-3.562c-0.979-0.604-2.01-0.796-2.822-0.521 C9.931,32.004,9.181,33.099,9.103,34.332L9.103,34.332z"/></g><g><path fill="#513620" d="M33.233,32.151c0.779-0.601,1.698-1.056,2.678-1.138c0.98-0.082,2.022,0.249,2.66,0.997 c0.771,0.904,0.832,2.227,0.582,3.388c-0.216,1.004-0.681,2.02-1.548,2.571c-0.802,0.51-1.807,0.541-2.757,0.558 c-1.171,0.02-2.486,0.211-3.645,0.026c-0.991-0.158-0.99-0.783-0.835-1.647C30.703,35.045,31.733,33.307,33.233,32.151z"/><path fill="#010101" d="M32.354,39.132c-0.416,0-0.828-0.022-1.23-0.086c-0.506-0.081-0.86-0.273-1.084-0.587 c-0.337-0.475-0.261-1.096-0.163-1.642c0.359-1.999,1.471-3.844,3.05-5.062l0,0c0.946-0.729,1.964-1.158,2.941-1.24 c1.203-0.104,2.381,0.347,3.083,1.171c1.05,1.232,0.883,2.921,0.69,3.818c-0.201,0.932-0.67,2.189-1.769,2.887 c-0.945,0.601-2.094,0.62-3.017,0.636c-0.353,0.006-0.719,0.028-1.09,0.05C33.3,39.104,32.825,39.132,32.354,39.132z M33.538,32.546c-1.386,1.069-2.361,2.689-2.677,4.447c-0.038,0.213-0.128,0.714-0.006,0.886c0.073,0.103,0.272,0.154,0.427,0.179 c0.749,0.119,1.601,0.069,2.425,0.019c0.385-0.023,0.766-0.045,1.132-0.052c1.015-0.017,1.842-0.063,2.497-0.479 c0.808-0.513,1.167-1.509,1.327-2.254c0.263-1.219,0.09-2.298-0.474-2.959c-0.495-0.582-1.349-0.891-2.237-0.823 C35.166,31.577,34.331,31.935,33.538,32.546L33.538,32.546z"/></g></svg>